<?xml version="1.0" encoding="utf-8"?>
<!-- Generator: Adobe Illustrator 16.0.0, SVG Export Plug-In . SVG Version: 6.00 Build 0)  -->
<!DOCTYPE svg PUBLIC "-//W3C//DTD SVG 1.1//EN" "http://www.w3.org/Graphics/SVG/1.1/DTD/svg11.dtd" [
	<!ENTITY ns_extend "http://ns.adobe.com/Extensibility/1.0/">
	<!ENTITY ns_ai "http://ns.adobe.com/AdobeIllustrator/10.0/">
	<!ENTITY ns_graphs "http://ns.adobe.com/Graphs/1.0/">
	<!ENTITY ns_vars "http://ns.adobe.com/Variables/1.0/">
	<!ENTITY ns_imrep "http://ns.adobe.com/ImageReplacement/1.0/">
	<!ENTITY ns_sfw "http://ns.adobe.com/SaveForWeb/1.0/">
	<!ENTITY ns_custom "http://ns.adobe.com/GenericCustomNamespace/1.0/">
	<!ENTITY ns_adobe_xpath "http://ns.adobe.com/XPath/1.0/">
]>
<svg version="1.1" id="Capa_1" xmlns:x="&ns_extend;" xmlns:i="&ns_ai;" xmlns:graph="&ns_graphs;"
	 xmlns="http://www.w3.org/2000/svg" xmlns:xlink="http://www.w3.org/1999/xlink" x="0px" y="0px" width="638.165px"
	 height="240.018px" viewBox="-11.498 0 638.165 240.018" enable-background="new -11.498 0 638.165 240.018" xml:space="preserve">
<metadata><?xpacket begin="﻿" id="W5M0MpCehiHzreSzNTczkc9d"?>
<x:xmpmeta xmlns:x="adobe:ns:meta/" x:xmptk="Adobe XMP Core 5.3-c011 66.145661, 2012/02/06-14:56:27        ">
   <rdf:RDF xmlns:rdf="http://www.w3.org/1999/02/22-rdf-syntax-ns#">
      <rdf:Description rdf:about=""
            xmlns:xmp="http://ns.adobe.com/xap/1.0/"
            xmlns:xmpGImg="http://ns.adobe.com/xap/1.0/g/img/">
         <xmp:CreatorTool>Adobe Illustrator CS6 (Windows)</xmp:CreatorTool>
         <xmp:CreateDate>2017-10-09T15:21:42-05:00</xmp:CreateDate>
         <xmp:MetadataDate>2017-10-09T15:21:43-05:00</xmp:MetadataDate>
         <xmp:ModifyDate>2017-10-09T15:21:43-05:00</xmp:ModifyDate>
         <xmp:Thumbnails>
            <rdf:Alt>
               <rdf:li rdf:parseType="Resource">
                  <xmpGImg:width>256</xmpGImg:width>
                  <xmpGImg:height>100</xmpGImg:height>
                  <xmpGImg:format>JPEG</xmpGImg:format>
                  <xmpGImg:image>/9j/4AAQSkZJRgABAgEASABIAAD/7QAsUGhvdG9zaG9wIDMuMAA4QklNA+0AAAAAABAASAAAAAEA&#xA;AQBIAAAAAQAB/+4ADkFkb2JlAGTAAAAAAf/bAIQABgQEBAUEBgUFBgkGBQYJCwgGBggLDAoKCwoK&#xA;DBAMDAwMDAwQDA4PEA8ODBMTFBQTExwbGxscHx8fHx8fHx8fHwEHBwcNDA0YEBAYGhURFRofHx8f&#xA;Hx8fHx8fHx8fHx8fHx8fHx8fHx8fHx8fHx8fHx8fHx8fHx8fHx8fHx8fHx8f/8AAEQgAZAEAAwER&#xA;AAIRAQMRAf/EAaIAAAAHAQEBAQEAAAAAAAAAAAQFAwIGAQAHCAkKCwEAAgIDAQEBAQEAAAAAAAAA&#xA;AQACAwQFBgcICQoLEAACAQMDAgQCBgcDBAIGAnMBAgMRBAAFIRIxQVEGE2EicYEUMpGhBxWxQiPB&#xA;UtHhMxZi8CRygvElQzRTkqKyY3PCNUQnk6OzNhdUZHTD0uIIJoMJChgZhJRFRqS0VtNVKBry4/PE&#xA;1OT0ZXWFlaW1xdXl9WZ2hpamtsbW5vY3R1dnd4eXp7fH1+f3OEhYaHiImKi4yNjo+Ck5SVlpeYmZ&#xA;qbnJ2en5KjpKWmp6ipqqusra6voRAAICAQIDBQUEBQYECAMDbQEAAhEDBCESMUEFURNhIgZxgZEy&#xA;obHwFMHR4SNCFVJicvEzJDRDghaSUyWiY7LCB3PSNeJEgxdUkwgJChgZJjZFGidkdFU38qOzwygp&#xA;0+PzhJSktMTU5PRldYWVpbXF1eX1RlZmdoaWprbG1ub2R1dnd4eXp7fH1+f3OEhYaHiImKi4yNjo&#xA;+DlJWWl5iZmpucnZ6fkqOkpaanqKmqq6ytrq+v/aAAwDAQACEQMRAD8A9U4q7FXYqx3zf+YHlfyn&#xA;bepq12BcMOUNlFR7iT/VSuw2+01B75ZDGZcnG1Osx4R6jv3dXmn6S/NX8zmppinyx5Vc/wC9ZLCW&#xA;VPEMOLyVHZOKdiTl9Qx895Or49Rqvp9GP8fjuRkn/OOGkQW4m0zXL631hByS7Ypw9TxCoqSL/wAG&#xA;cH5o9RszPY0QLjKQl3qFr+YXn/yDcR6d58sX1LSieEGt2/xNTtVvhWTp0fi/ffCcUZ7x5sY6zNpz&#xA;w5hxR/nD8fteraB5k0PzBYi+0e8jvLc05FD8SEivF0NGRvZhmNKJiaLt8OeGQXE2EyyLa7FXYq7F&#xA;XYq7FXYq7FXYq7FXYq7FXYq7FXYq7FXYq7FXYq7FXYq7FXYq7FXYqgtY1vSdGsXvtVu47O0T7Usr&#xA;UBP8qjqzHsBvhjEk0GvJljAXI0HlGofmn5w843cmkfl1p7xwA8Z9auFChAe45VSP2rVj2WuZQwxh&#xA;vN1E9flznhwD/OTnyh+SWj6dcfpXzLMfMGuSHnJLcVeFX8eL1Mh/yn+4ZCeoJ2Gwb9N2XGJ4snrn&#xA;5vSwAAABQDoMx3aOxVSurS1u7eS2uoUnt5VKywyqHRlPZlaoIwg0iUQRR3DyrX/yWu9Nvm1z8vdQ&#xA;fSNRWrGwZz6D9+Ksa0B/kfkvyGZEc9ipi3UZuzDE8eA8Mu7ou8vfnVPYXw0P8wLB9G1NdvroQ+g/&#xA;YMyjlQH+ZSV+QxlgsXHcLh7TMTwZhwy7+j1S2uba6gS4tpUnt5QGimjYOjKehVlqCMxiKdvGQIsc&#xA;lTFLsVdirsVdirsVdirsVdirsVdirsVdirsVdirsVdirsVdirsVdirsVecefPzZfSdVHlvyzYnWf&#xA;Mj7NGoZo4WIqAwT4nam5AIA7nMjHhsWdg6vV9o8EvDxjin9yTaP+T2u+Yr5Nb/MfUZLufrHpMT0R&#xA;B/KzJRVH+TF/wWSlnERUA04+zZ5Tx5zfl+P0PWNP03T9NtI7Owt47W1iFI4YlCKPoGYxJPN3EIRi&#xA;KiKCIwMnYqleq+avLGjzpBq2sWWnTyLzjiu7mKB2SpHILIykiopXJCJPIMJZIx5kBBf8rF/L7/qZ&#xA;9J/6Trb/AJrw+HLuLD8xj/nR+YVE8++RXUMnmPS2U9CL23I/4nj4Uu4sTq8Q5zj8wlnmHU/yq8xW&#xA;JstY1XSbuE14Fru3DoT+0jhwyn5HJxjkibALTmy6bIKlKB+IYIfJPnvyT/uX/L3Uf01oE3786VIR&#xA;KGRhUMgUhZKj9qMqx265d4kZ7TFF1/5XNg9WA8cO78c/gzn8vfzM0vzhFNB6LWGs2n+9mnSmrLQ8&#xA;SyEgFlB2NQCD17Voy4jH3Ow0eujmFcpDmGYSyxxRvLK4jjjBZ3YgKqgVJJPQDKnOSr/GPlH/AKve&#xA;n/8ASVD/AM1Yq7/GPlH/AKven/8ASVD/AM1YqiLHzBoN/N6FjqVrdzgFjFBPHI/EdTxViab4qj8V&#xA;QH6f0H679Q/SVr9e5en9V9aP1ef8vp8uVfamKo/FXYqlWrebPK+jv6eq6taWUuxEU88aPQ9wjHl+&#xA;GKrdK83+VdXk9LS9Ys72b/fMM8byf8ADy/DFUyuru1tIHuLqZLe3j3kmlYIigmm7MQBviqW/4x8o&#xA;/wDV70//AKSof+asVd/jHyj/ANXvT/8ApKh/5qxV3+MfKP8A1e9P/wCkqH/mrFVe78x+XrKX0bzV&#xA;LS2moG9OaeKNuLbg0ZgaHFVD/GPlH/q96f8A9JUP/NWKu/xj5R/6ven/APSVD/zViqNTVdLew/SK&#xA;XkDaeAWN4JEMNFPEn1K8diKdcVdYarpeoo0mn3kF4iHi728iShT1oShNMVRWKoPUNa0fTii6hf29&#xA;mZKmMXEqRFgOvHmRWlcVeWf8472Ud5p+t+ZrkCXVb6+eGWc7sFCpM1Cf5nm3+QzK1RoiPR0nY0eK&#xA;Msh+oy/b+l6/mK7t2KuxVDanqVlpenXOo38ogs7OJpriVuiog5MfwwgWiUgBZfC/nzzve+b/ADde&#xA;67dVSOduFrATURW6bRJt3A3bxJJ75soR4RTz+eZySJKS5NxEw0m69OX0WNEk6HwbJRLjanHxC+oe&#xA;i/lp5Lk82eaILJ1P6Pg/f6hINqRKfsg+Ln4R9/bBmycEb6tfZ+k8fII/wjm+tIoooYkiiQRxRqFj&#xA;RRRVVRQAAdABmoe4AAFB5F5rs4tI/PTyzqFgPRl1ZGS+VRRXNGjLHxJUj6QDmVA3iIPR0uoiIayE&#xA;o/xc3pHnH/lEdb/7Z91/yZbMV3b5o/KL8qdP89W+py3d9LZmweJEESq3L1QxNeXhwxV6F/0K7oP/&#xA;AFe7r/kXHirJfy//ACV0vyZrrava6lPdyNA9v6UqIq0cqa1X/VxVm/mHWrXQ9Dv9Xuv7ixgedlrQ&#xA;twFQgr3Y/CPfFXx8bXzObP8A5WJzNTqpX6yK8hdf70c/9Wu3z2xV9f8AlrXbbXtAsNZtv7m+hSYL&#xA;WvFiPjQ+6NVT8sVYZ+eXnjUfKvlNP0W3pajqUv1aK4HWJApaR1/yugHzr2xVgnkX/nH2213RrbXv&#xA;M+pXRn1NFukgt2UPwlHNWlllWQszA1O23jiqI83f8422Vpps1/5W1C6N7aqZktLko5kKVbjHJGsR&#xA;Vv5ag74qivyv167/ADK8iax5P127f63brCovwA0r27OGUty+06tHQseoI71OKrv+hXdB/wCr3df8&#xA;i48VeYeVvy4stZ/MvUfKEt5LFbWU15Et0qqXYWshRSQdvipvir0//oV3Qf8Aq93X/IuPFWH/AJva&#xA;NFqP5y6bojyNHFeDTrJpgAWVZWERYA7VANcVZh/0K7oP/V7uv+RceKu/6Fd0H/q93X/IuPFWR+aP&#xA;K1v5V/JDVNBt53uYbO1m4zSAKzerOZTUDbYvTFXhX5Tee7nyX5khurjmNE1GkF+tDxKA0Eq+LRMa&#xA;/Ko74q+vIpY5oklicPFIoaN1NVZWFQQR2IxV8/f85S/73+Xv+MVz/wASjxVln/ONv/KDX3/bTl/6&#xA;h4MytX9XwdN2H/cn+t+gPV8xXcuxV2KvAv8AnJ/zjObCHylp81FfjcawF68AQ0MRofEc2H+rmZps&#xA;W3E6ftDWASGIc+ZfNf1b/K/DMp13Gzv8qPy707z1qd1pEut/ou/giE1vGbcTiZAaSUPrRUZKjah2&#xA;+RyrJk4RycjBphlPOi9RH/OJRBBHmuhHQ/UP+znKfzXk5f8AJf8AS+z9r1r8uPy/s/JWivYx3H12&#xA;8nf1Lu+MYiMhGyKE5PRVHbkdyT3ynLlMy5Wj0ccESB1LK8qcx5R+YX/k4fI/+z/4kcysX93J02s/&#xA;xrE9A84/8ojrf/bPuv8Aky2YruXzj+TH5p+X/JFtqsWrW93O188LRG1SNwBGHB5epJF/N2xV6R/0&#xA;M55C/wCWDVf+RNv/ANlGKs68i+etI86aRNqmlw3ENvDcNast0qI5dESQkCN5BSkg74q88/5yV8zt&#xA;a6BY+XLdj6+qS+tcIvX0ICCqkf5UpBH+rirJB+WkZ/J4eTygF59T9Su219X168vD1vhr/LirE/8A&#xA;nGjzQ0mn6j5WumInsXN1aRt19JzxlWh6cJKH/ZYqzD85vIN35x8rLDp5H6UsJPrFpExCrL8JV4qk&#xA;gAsOhPcYq8o8sfnb5x8kW8Pl7zHo7XEVighgSbla3KRpsq1Kurqq7L8PTvir0TQv+ci/IGoyJDef&#xA;WdKkag53EYaKp/y4i5+llGKs+0Sw8tRwLfaHbWaQXSArc2SRKsidRR4hRhiqZ4q+dPy2/wDWhte/&#xA;5itV/wCT7Yq+i8VfNH5w6nb6T+d+n6pcK729g+n3UyxgFykMgkYKCVFaLtU4qzr/AKGc8hf8sGq/&#xA;8ibf/soxV3/QznkL/lg1X/kTb/8AZRirJvzKv4dQ/KXVr+EMsN3p6zxq4AYLKFcBgCRWh33xV5V5&#xA;G/L6Lzl+S1xBCoGr2V/cTaZKaCr+nFyiJP7MgFPnQ9sVZB/zj7+YMssT+SdZYx39jy/R3q1DmNCf&#xA;UtyDvyi7D+Xb9nFUo/5yl/3v8vf8Yrn/AIlHirLf+cbv+UGvv+2nL/1DwZlav6vg6bsP+5P9b9Ae&#xA;rZiu5diqV+aPMNn5d0G81i73itYywjrQu52RB7sxAycIGRoNOozjFAzPR8eazqd3rGpXeo37erc3&#xA;kjSTE9Kt2A8ANgPDNxGIAp4PJllOZmeZNsQv4fqsrqdwN09wemVkU7TDLjFrvLXmLUvLuv2Wuae/&#xA;G8sZRKlSaMOjo3+S6kq3schKNinMhMxIIfeHljzFp3mTQLHXNOblaX0QlQH7Sno6NT9pGBVvcZrZ&#xA;Ro07+ExIAhNMizdiryj8wv8AycPkj/Z/8SOZWL+7k6bW/wCNYnoHnH/lEdb/AO2fdf8AJlsxXcvD&#xA;f+cdPKvlvXLLXH1jTbe/aCS3EJuI1kKBlk5ca9K0GKvY/wDlWP5ef9S7Yf8AIhP6YqnGj6Fo2i2r&#xA;Wuk2UNjbO5leGBAilyApYgd6KBir5k803Pmbz5+bV5c+WLYX8+lOPqCM0YjENlIFEh9YohVpW5UP&#xA;XlirNfrP/OU3/LJF9+mf814qwCyufNn5f/mdY6z5ntfqVzeStcXqIYmR7e5dkmZRAzR7GrBfED2x&#xA;V9BecvzV8r+Ub20tNVFwxvY/WglgRZI+HLjuxdfnirJ77TdL1O39G/tYL62bf0540lQ19nDDFWBe&#xA;aPyF8g6xbSmytP0RfsD6VxakiMN25Qk8CteoUA++KsC/5x31jVdN826v5QuJPUtI0mk4A1VLi3lW&#xA;Nins4Y1+QxV9CYq+dPy2/wDWhte/5itV/wCT7Yq+i8VfOH5o29vc/n9o1vcRJNbzXGmRzQyKHR0e&#xA;ZQyspqCCDQg4q9w/5V/5C/6lvSv+kK3/AOaMVd/yr/yF/wBS3pX/AEhW/wDzRiqW/mtDDB+WGuww&#xA;osUMVnwjjQBVVVKgKoGwAHQYqxv/AJxs/wDJeSf9tCf/AIhHirF/z38lXuh6xb/mB5erA6yo2oGM&#xA;f3dwCPTnp0pJ9l/fx5HFWKfnJ50s/OGkeVdWg4pOYbmK+twa+lOpi5r8j9pfYjFXqX/ON3/KD33/&#xA;AG05f+oeDMrV/V8HTdh/3J/rfoD0XzHokGu6Fe6RPI8KXkTRieIlZI2O6SKQRujAMMxomjbt5x4g&#xA;Q+HfMr+dPLuvXuialqN5HeWMpikHry0YdVdfi+y6kMvsc2MaIt0M+KJIJSs+YNbkos+oXMsdd1ea&#xA;Rh8wC3XJAU1TuQoqv6Q1D/lql+iRj/HJONwDuWm6uZT8cru3RSWYn5Yso7clXTbTUtS1C20+yDzX&#xA;l3KkNvEDuzuQqj7zgNBlHiJoPt/yH5StvKflWx0SFvUe3Tlcz7n1J3+KV996Fj8PtTNbOXEbelw4&#xA;uCIiyDINrsVeU/mD/wCTg8kf7P8A4kcysX93J02t/wAaxPQPN6lvKetqoqTYXQAHUn0WzFdy8l/5&#xA;xfgnhsPMHqxtHWW2pzUrX4ZPHFXuGKsV/NDzHL5f8j6nfW4Y3rx/V7MICW9ab4FYU/kBL/RirBP+&#xA;ca/KslhoF/r11EY7jUZfQt+YoRBB1Irv8UhIP+qMVey4q8l/5yN8qPqvlO31i2iMl3pEvxhRVjbz&#xA;0R9huaOEPyrirGbfy1e/mb+U2nLEPT8z+WWe1iWeqetEFWiEt05RhOLHbkp6VJCqWeXPzn87eRba&#xA;LQPM+jSXMVoBHb/WC9tcLGuwUOyusiqPs7dO9MVTDVv+ckNf1eE6d5Y0JoNQuAUSYu11KCdqxxIi&#xA;/EOxNflirKfyL/LLVfLgu/MGvqY9Y1FPTjt2PJ44WYO5kO/xyMFNO1PE0Cr1rFXzx+XFtcJ/zkFr&#xA;srROsZutUo5UhTWZqb4q+h8VfNP5z3V5pv5yWmsQWr3P6P8AqN0sYDcXMDCTjyANK8aYqnX/AEMr&#xA;r3/Uq/8AJaT/AKpYq7/oZXXv+pV/5LSf9UsVZLqHnC985fkt5h1OfTzYz8ZbdbYFpCQnA8t1U78v&#xA;DFVX/nHGGWL8vpFlRo2+vzHiwINOEfjir0rUNPs9RsbiwvYhNaXUbRTxN0ZHFCMVfHf5geQNV8qe&#xA;ZbjSzFJPaV9WxuQpYSQOfhJoKchTi3uPCmKvdv8AnG//AJQe+/7acv8A1DwZlav6vg6bsP8AuT/W&#xA;/QHq2YruXz//AM5S+TtMuI9K1+CWODV3c2ckTVHrwqpcPtXeI7V/ygOwzL0pJ2dT2mYQAkeb58/w&#xA;7e/zxfe3/NOZnAXT/m8feyvyh+UXnXzVbzS6TDDLFasI5JpJfTXkRUKCw3IHh0FMryTEObkYMRz2&#xA;YdGQ/wDQtf5n/wC+LT/pIX+mV/mIt/8AJ+Xyek/kn+SOqeWNdn17zIkX1yBPT02KJxIqtICJZSR0&#xA;PH4R8z7ZTmzCQoObo9GYS4pc+j27MZ2TsVdiryn8wf8AycHkj/Z/8SOZWL+7k6bW/wCNYnqkskcU&#xA;byyMEjQFnY7AACpJzFdy84g/N3VtUWW88teUL7V9GidkGoCRIPU4VDGKJgzPuPn8jtiqbw/mfpF1&#xA;5Fv/ADZZW8siacHW70+WkU0c0ZAaJ/tgH4gcVSaz/NXzje2kF5a+Qb6a1uY1mglW4j4vHIoZWHwd&#xA;CDXFUx1r8y77RPJB8zatoE1nOtwIDpckqiSjGgfmFIofliqCf8z/ADjBG8115A1KO3jUvI6SpIwU&#xA;CpPEKK4qi7z83dGj8vaL5jtraS40bVbtbO6nLBHs2Y0JlSj148WrQ/LqMVZ1LJHFG8sjBI0BZ2Ow&#xA;AAqScVedp+bdrd+ULfzHJozmxvNUXTbSKSRSZFYlfrG6UA5KRx9uuKp55v8AOug+T4oENs1zquoH&#xA;hYaXZxgzzsPYDZQT1P0VxVIx+beo6bNbt5u8rXmgaddOI49SMiXMKM32fW4Khjr9JxVMfOX5i3eg&#xA;a5p2jadokut3mpQvPCkEqoeMfXYq1dt8VQtj+YfnW4vbeCbyJfW0MsiJJcNOhWNWYAuRw6KN8VR3&#xA;mr8x49I1uHy9pWlXGu6/NF9YNlbFUWOKtOUsrVC1+X3VGKqXlz8yzf8AmBPLmuaNc+X9anjaW0gu&#xA;GWWKdUBLenKgAJABPTt1xVm2KuxV2KuxV2KuxV5J/wA46XMcWgaxo8nwX9pftLPCftBXjSMbezQs&#xA;My9WNwfJ0nYcqhKB+oS/H3PWZJI442kkYJGgLO7EAAAVJJPQDMR3ZNPkX80/PEnm3zXNeRMf0ba1&#xA;t9NTcfulP95Q95D8XyoO2bPDj4Y+bxuv1XjZCf4RySLSrC71W+trGyjMt3dyLDFGO7safQO/sMyO&#xA;IAWXXxxGUhEcy+v/ACd5Ys/LPl200e2o3oLWeWlDJM28jn5t08BQZp8kzKVvdaXTjDjEB0+9Osg5&#xA;DsVdirsVdiryTzpcxXv53+U7G2Pq3FkhkuVXfgGDyUPvwXl8iMy8YrFIuk1UhLWY4jmHqWqJZSab&#xA;dR3zrFZSROlzI7BFWNlKsSx2Gx65iO7eW6RoX5seUNNitfKtzpvmby3Hyewhm/dXHpSEyUWRSkbV&#xA;LbMXNfADFUNf+Y9J1r8r/OzQaOND1qAuNdsqCpuWYEyFgF58iDuRX9ZVR/k+7/ONfKOiLp9hoj2A&#xA;sLUWjzS3AlMPor6ZcLty40rTviqH/Ox9cf8AKANrsdvFqpuovrEdozNCP3rcOBf4vsca174qiPNP&#xA;5gfm3o2kTX8vlC3ggiBMt0LsXSxL/O8UXF+I6k9B3xVU8u/lzY3X5MS6DBdx6g+qxPexXkY4xG5e&#xA;kkRjDBSqqyKpqAeuw6Yqk9/58vNR/JSytYCT5i1aRPLph/3Z9Yr6UvIdQWiFfYsMVTL8z9EttC/L&#xA;zyzo9t/c2Op6fCGApyK8uTn3ZqscVV1SOf8A5yIf66ORtdD56bz7OZArFP8AYySfjir0DX7TQ7zS&#xA;Li311YX0pwv1lbkhYqK4ZeRYgCjgU98VeZedjq0P5n+UP8LR2s90um3Is0uXf6uYuJFecdWPwfZx&#xA;VlOl3X5vtqNsup2Oix6eZFF08EtwZRHX4igbblTpXFUr8yeU9ck853PmbyRrNnFrq26WuraZdASI&#xA;6CjJzKcnjLBBTYVp164qhLDzfq6+cNG0v8wvLVvaapK8i6FrNsRLCJWADKlS7Jz2H2q9Kim+KvU8&#xA;VdirsVdirsVdirzDzn+WOtx69J5t8j3n1DW3q11aEhY52O7EFqpVyByVxxJ3qDmVjzCuGfJ0+q7P&#xA;mJ+LhNT6jvQem/mxp2oxz+VfzDsJNGu50MNy5MsMEiNt8TKVkiD+IYqR3phlgI9UDbDH2lGV4844&#xA;D9n7E9i/JP8AKiaJZYdHWSJwGSRLu7ZWB6EETUIyrx597lDszTkWI/af1proH5X+RPL+opqWk6WL&#xA;e9jDCOYzTy8eQKmglkda0JFaYJZpEUS24tBhxy4oxo/FlOVOY7FXYq7FUNqWqadpdnJe6jcx2tpE&#xA;KvNKwVR7b9z2GERJNBhkyRgLkaDyrVPzZ8x+Zr19G/LrT3nYfDNrEy0RAf2lV/hQeBk6/wAuZccE&#xA;Yi5l02TtLJmPBpxf9L8fp+TI/wAuvyz/AMNz3GsatdnU/Ml8D9YuySyoGNWVC3xMWI3Y/Kg71Zs3&#xA;FsNouVodB4RM5HiyHqzTULC11CwubC7T1LW7ieC4SpHKOVSjio8Qcodk820vyX+bnlq2GkeXdd02&#xA;70SKotG1OKUXECEk8F9JWVqV/aP0AbYqi4fytvovJnmLTZdRW98w+ZS0t/qMqmOL1SahVReRCLvT&#xA;9Q6YqhdL8sfndpmmWmm2ut6MLWyhjtoA0MpYRxIEWp4bmi4qifNHkbzv5o8gy6HrGoWL6w92ky3M&#xA;SyJAIUoQpAXlyrXtir0K6toLq2ltp0EkE6NHLGejI44sD8wcVYv+WflTVvKnls6HqF1HdxW9xK1h&#xA;JHyqLeQ8wr8gvxcyx28cVSGw/KOS2/MyTzK10jaIs01/aab8XJL64RVkkII40qCw38MVZD+YnlK9&#xA;8z6TZWVpNHBJa39veO0vKhSHlVRxDbnltiqH89eQJdevbDXNIvjpXmbSqiyvgodGRq1ilXuvxH7z&#xA;sa4qkOo+RfzN81QxaX5v1nT4dCEiSXlvpUcvq3KxsGVXeUJx3Fdtgd6HFUw85+R/NV55m0bXPK15&#xA;Z2Muk2slqiXSuy8ZPh2VVYUC7YqpxaV+eYkQya3oxjBHMCCSpFd6fBiqp5k8g+Y080y+a/JuqRWG&#xA;q3caRajZ3iM9rcCMAKzFQzKQqgbL9I3qqp6b5E85ap5k07XPO2p2k40ctJp+macjrAJmFPVd5ArE&#xA;igNKfd3Veh4q7FXYq7FXYq7FXYqlHmXyl5f8y2X1TWLNLhBX05fsyxk945B8S/51ycMhidmjPpoZ&#xA;RUxby+byh+Y/5dyvd+Urltb0CpaXSphzkVeppGKVP+VFQnuuZQyQyfVsXTnTajSm8R44d34/R8mX&#xA;+Svzc8s+ZmW0dv0ZrFeLafckAsw2pE5oH+Wze2U5NPKO/MOdpO08ebb6Z9xZxlDsXYq0zKqlmICg&#xA;VJOwAGKvNvNf506ZZ3X6I8r251/W5CUjWAF4Ff8A1k3kI8E2/wAoZk49MTvLYOo1Pa0Yngxjjn9n&#xA;7Uq038qvNHmq8j1f8xNRd1HxQ6NA3FUB/ZYp8Ce/Dc92rk5Z4wFQHxacfZ2TMePUH/N/H483qml6&#xA;Tpmk2SWWm2sdpaR/ZhiUKK+Jp1J7k7nMSUiTZd1jxRgKiKCLwM3Yq7FXYq7FXYq7FXYq7FXYq7FX&#xA;Yq7FXYq7FXYq7FXYq7FXYq7FXYq7FXYq7FWHedfyr8realeeeH6nqhHw6jbgK5Pb1F+zIPnv4EZd&#xA;jzyh7nA1fZ2LNuRUu8fjdhC69+Zv5bOIdeiPmHyyp4x36EtJGvarmrL/AKsm3ZWy/ghl5bSdd42o&#xA;0m0/Xj7/AMfp+aeXf/OQPkWOw9e2F1cXRHw2fpcG5Hszk8B9BOQGknbkS7bwCNiye5JF0b8zfzKY&#xA;S6zKfLnld6MlkgIklXtVDxZ6+L0XuFyfFjxct5OP4Wo1e8/3ePu7/wAeb0nyp5H8teVrX0NItBHI&#xA;wAmun+OeSn87n9QoPbMbJllPm7fTaPHhFQHx6p9lbkuxV2KuxV2KuxV2KuxV2KuxV2KuxV2KuxV2&#xA;KuxV2KuxV2KuxV2KuxV2KuxV2KuxV2KuxVp+HBudOFDyr0p3ripSCz/wB9eX6l+ivr/I8fR+rety&#xA;rvTj8Va5YeOt7pxYeBxbcHF8LZBlblOxV2KuxV2KuxV2KuxV2KuxV2KuxV2KuxV2KuxV2KuxV2Ku&#xA;xV2KuxV2KuxV2KuxV//Z</xmpGImg:image>
               </rdf:li>
            </rdf:Alt>
         </xmp:Thumbnails>
      </rdf:Description>
      <rdf:Description rdf:about=""
            xmlns:xmpTPg="http://ns.adobe.com/xap/1.0/t/pg/"
            xmlns:stDim="http://ns.adobe.com/xap/1.0/sType/Dimensions#"
            xmlns:xmpG="http://ns.adobe.com/xap/1.0/g/">
         <xmpTPg:MaxPageSize rdf:parseType="Resource">
            <stDim:w>8.863397</stDim:w>
            <stDim:h>3.333577</stDim:h>
            <stDim:unit>Inches</stDim:unit>
         </xmpTPg:MaxPageSize>
         <xmpTPg:NPages>1</xmpTPg:NPages>
         <xmpTPg:HasVisibleTransparency>False</xmpTPg:HasVisibleTransparency>
         <xmpTPg:HasVisibleOverprint>False</xmpTPg:HasVisibleOverprint>
         <xmpTPg:PlateNames>
            <rdf:Seq>
               <rdf:li>Cyan</rdf:li>
               <rdf:li>Magenta</rdf:li>
               <rdf:li>Yellow</rdf:li>
               <rdf:li>Black</rdf:li>
            </rdf:Seq>
         </xmpTPg:PlateNames>
         <xmpTPg:SwatchGroups>
            <rdf:Seq>
               <rdf:li rdf:parseType="Resource">
                  <xmpG:groupName>Grupo de muestras por defecto</xmpG:groupName>
                  <xmpG:groupType>0</xmpG:groupType>
               </rdf:li>
            </rdf:Seq>
         </xmpTPg:SwatchGroups>
      </rdf:Description>
      <rdf:Description rdf:about=""
            xmlns:dc="http://purl.org/dc/elements/1.1/">
         <dc:format>image/svg+xml</dc:format>
      </rdf:Description>
      <rdf:Description rdf:about=""
            xmlns:xmpMM="http://ns.adobe.com/xap/1.0/mm/"
            xmlns:stEvt="http://ns.adobe.com/xap/1.0/sType/ResourceEvent#">
         <xmpMM:DocumentID>xmp.did:219511772FADE711B8ADBBD94D7ECFBC</xmpMM:DocumentID>
         <xmpMM:InstanceID>xmp.iid:219511772FADE711B8ADBBD94D7ECFBC</xmpMM:InstanceID>
         <xmpMM:OriginalDocumentID>xmp.did:219511772FADE711B8ADBBD94D7ECFBC</xmpMM:OriginalDocumentID>
         <xmpMM:History>
            <rdf:Seq>
               <rdf:li rdf:parseType="Resource">
                  <stEvt:action>saved</stEvt:action>
                  <stEvt:instanceID>xmp.iid:219511772FADE711B8ADBBD94D7ECFBC</stEvt:instanceID>
                  <stEvt:when>2017-10-09T15:21:43-05:00</stEvt:when>
                  <stEvt:softwareAgent>Adobe Illustrator CS6 (Windows)</stEvt:softwareAgent>
                  <stEvt:changed>/</stEvt:changed>
               </rdf:li>
            </rdf:Seq>
         </xmpMM:History>
      </rdf:Description>
   </rdf:RDF>
</x:xmpmeta>
                                                                                                    
                                                                                                    
                                                                                                    
                                                                                                    
                                                                                                    
                                                                                                    
                                                                                                    
                                                                                                    
                                                                                                    
                                                                                                    
                                                                                                    
                                                                                                    
                                                                                                    
                                                                                                    
                                                                                                    
                                                                                                    
                                                                                                    
                                                                                                    
                                                                                                    
                                                                                                    
                           
<?xpacket end="w"?>
	</metadata>
<g enable-background="new    ">
	<path fill="#474747" d="M280.63,71.045h-40.653v23.133h35.324v8.902h-35.324v33.906h-9.922V62.143h50.576V71.045z"/>
	<path fill="#474747" d="M350.885,136.987h-11.227l-8.675-22.736h-31.354l-8.278,22.736h-10.433l28.69-74.843h10.773
		L350.885,136.987z M328.092,106.312l-13.211-34.644l-12.531,34.644H328.092z"/>
	<path fill="#474747" d="M382.755,138.29c-5.293,0-9.914-0.623-13.863-1.871c-3.95-1.247-7.238-2.995-9.865-5.244
		c-2.628-2.249-4.621-4.923-5.982-8.023c-1.36-3.099-2.098-6.52-2.211-10.262h9.525c0.264,2.835,1.021,5.292,2.269,7.371
		c1.247,2.079,2.844,3.799,4.791,5.16c1.946,1.36,4.186,2.362,6.719,3.005c2.531,0.644,5.234,0.964,8.107,0.964
		c2.797,0,5.339-0.292,7.626-0.879c2.287-0.586,4.243-1.437,5.869-2.552c1.624-1.114,2.882-2.456,3.771-4.025
		c0.888-1.568,1.332-3.335,1.332-5.301c0-2.042-0.406-3.779-1.219-5.216c-0.813-1.436-2.136-2.684-3.969-3.742
		c-1.834-1.058-4.234-2.013-7.201-2.863c-2.968-0.851-6.625-1.729-10.972-2.637c-4.195-0.944-7.815-2.031-10.857-3.26
		c-3.043-1.228-5.538-2.665-7.484-4.309c-1.947-1.644-3.394-3.524-4.338-5.642c-0.945-2.117-1.417-4.573-1.417-7.371
		c0-2.985,0.642-5.755,1.928-8.306c1.284-2.552,3.099-4.743,5.443-6.577c2.343-1.833,5.149-3.269,8.419-4.309
		c3.27-1.04,6.89-1.56,10.858-1.56c4.195,0,8.023,0.51,11.481,1.531c3.459,1.021,6.444,2.504,8.959,4.451
		c2.513,1.947,4.479,4.309,5.896,7.087c1.417,2.778,2.183,5.925,2.296,9.44h-9.582c-1.021-9.034-7.22-13.551-18.598-13.551
		c-5.556,0-9.837,1.03-12.842,3.09c-3.005,2.061-4.508,4.848-4.508,8.363c0,1.587,0.273,2.939,0.822,4.054
		c0.548,1.116,1.493,2.098,2.835,2.949c1.341,0.85,3.108,1.625,5.302,2.324c2.191,0.7,4.933,1.389,8.221,2.07
		c2.23,0.454,4.526,0.945,6.89,1.474c2.361,0.53,4.668,1.182,6.917,1.956c2.248,0.775,4.366,1.711,6.351,2.807
		c1.984,1.097,3.723,2.419,5.216,3.969c1.493,1.55,2.674,3.383,3.544,5.5c0.869,2.118,1.304,4.593,1.304,7.428
		c0,3.289-0.689,6.313-2.069,9.072c-1.38,2.76-3.308,5.132-5.783,7.116c-2.477,1.984-5.415,3.534-8.816,4.649
		C390.466,137.733,386.761,138.29,382.755,138.29z"/>
	<path fill="#474747" d="M472.911,71.045h-24.777v65.941h-9.922V71.045h-24.608v-8.902h59.308V71.045z"/>
	<path fill="#474747" d="M534.775,136.987h-55.905V62.143h54.204v8.902h-44.282v22.736h41.391v8.902h-41.391v25.402h45.983V136.987z
		"/>
	<path fill="#474747" d="M602.875,136.987h-10.148l-39.293-59.024v59.024h-9.412V62.143h10.263l39.122,59.137V62.143h9.469V136.987z
		"/>
</g>
<g enable-background="new    ">
	<path fill="#474747" d="M244.827,186.215c-2.646,0-4.957-0.313-6.932-0.936c-1.975-0.624-3.619-1.498-4.933-2.623
		c-1.314-1.124-2.311-2.461-2.991-4.011c-0.68-1.55-1.049-3.261-1.105-5.132h4.763c0.132,1.418,0.51,2.646,1.134,3.686
		c0.624,1.04,1.422,1.899,2.396,2.58c0.973,0.681,2.093,1.182,3.359,1.502c1.266,0.322,2.617,0.482,4.054,0.482
		c1.398,0,2.669-0.146,3.813-0.439s2.122-0.718,2.935-1.275c0.812-0.558,1.441-1.229,1.885-2.013
		c0.444-0.784,0.666-1.668,0.666-2.651c0-1.021-0.203-1.89-0.609-2.608c-0.407-0.718-1.068-1.342-1.984-1.871
		c-0.917-0.528-2.117-1.006-3.601-1.432c-1.484-0.425-3.313-0.864-5.486-1.317c-2.098-0.473-3.908-1.017-5.429-1.631
		c-1.521-0.613-2.769-1.332-3.742-2.154c-0.974-0.822-1.697-1.762-2.169-2.821c-0.473-1.058-0.708-2.286-0.708-3.685
		c0-1.493,0.321-2.878,0.964-4.153c0.642-1.276,1.549-2.372,2.722-3.289c1.171-0.916,2.575-1.635,4.209-2.154
		s3.445-0.779,5.429-0.779c2.098,0,4.012,0.255,5.741,0.765c1.729,0.511,3.222,1.253,4.479,2.226
		c1.256,0.974,2.239,2.155,2.948,3.544c0.708,1.389,1.091,2.963,1.148,4.721h-4.791c-0.51-4.518-3.61-6.776-9.299-6.776
		c-2.778,0-4.918,0.516-6.421,1.545c-1.502,1.031-2.254,2.425-2.254,4.182c0,0.794,0.137,1.47,0.411,2.027
		c0.274,0.558,0.747,1.049,1.417,1.475c0.67,0.425,1.554,0.813,2.651,1.162c1.096,0.35,2.466,0.694,4.11,1.034
		c1.115,0.228,2.263,0.473,3.445,0.737c1.181,0.265,2.334,0.591,3.458,0.979c1.124,0.388,2.183,0.855,3.175,1.403
		s1.861,1.21,2.608,1.984c0.747,0.775,1.337,1.691,1.772,2.75c0.435,1.059,0.652,2.296,0.652,3.714c0,1.644-0.345,3.156-1.035,4.536
		s-1.654,2.565-2.892,3.558c-1.238,0.992-2.708,1.768-4.408,2.324C248.683,185.936,246.83,186.215,244.827,186.215z"/>
	<path fill="#474747" d="M293.532,185.563h-27.953v-37.422h27.102v4.451H270.54v11.368h20.695v4.451H270.54v12.7h22.992V185.563z"/>
	<path fill="#474747" d="M331.719,185.563h-5.387l-3.516-10.036c-0.32-0.869-0.746-1.667-1.275-2.396
		c-0.529-0.728-1.143-1.355-1.842-1.885s-1.48-0.94-2.34-1.233s-1.771-0.439-2.735-0.439h-9.186v15.989h-4.961v-37.422h16.585
		c1.002,0,1.955,0.024,2.863,0.071c0.906,0.047,1.771,0.151,2.594,0.312c0.822,0.161,1.602,0.402,2.338,0.723
		c0.738,0.322,1.438,0.766,2.1,1.333c1.133,1.002,1.992,2.211,2.578,3.629c0.586,1.417,0.879,2.882,0.879,4.394
		c0,1.305-0.193,2.505-0.58,3.601c-0.389,1.097-0.945,2.069-1.674,2.92c-0.727,0.851-1.611,1.569-2.65,2.155
		s-2.211,1.002-3.516,1.247v0.085c2.609,0.813,4.611,3.071,6.012,6.775L331.719,185.563z M305.439,165.094h11.114
		c1.529,0,2.848-0.113,3.953-0.34s2.014-0.596,2.723-1.105c0.709-0.511,1.229-1.182,1.559-2.013c0.33-0.832,0.496-1.843,0.496-3.034
		c0-2.154-0.662-3.746-1.984-4.776s-3.326-1.545-6.01-1.545h-11.851V165.094z"/>
	<path fill="#474747" d="M368.631,148.141l-14.601,37.422h-5.103l-14.572-37.422h5.33l11.793,32.092l11.851-32.092H368.631z"/>
	<path fill="#474747" d="M378.751,185.563h-4.933v-37.422h4.933V185.563z"/>
	<path fill="#474747" d="M418.582,159.481h-5.074c-0.076-1.19-0.388-2.263-0.936-3.218c-0.549-0.954-1.267-1.767-2.154-2.438
		c-0.889-0.671-1.928-1.186-3.119-1.545c-1.19-0.359-2.476-0.539-3.855-0.539c-1.89,0-3.596,0.331-5.117,0.992
		c-1.521,0.662-2.816,1.63-3.884,2.906c-1.068,1.275-1.89,2.849-2.467,4.72c-0.576,1.871-0.864,4.026-0.864,6.464
		c0,2.42,0.288,4.569,0.864,6.449c0.577,1.881,1.395,3.464,2.453,4.749c1.058,1.285,2.343,2.264,3.855,2.935
		c1.512,0.671,3.193,1.006,5.046,1.006c1.455,0,2.783-0.18,3.983-0.538c1.2-0.359,2.239-0.894,3.118-1.603
		c0.879-0.708,1.583-1.573,2.112-2.594c0.528-1.021,0.851-2.201,0.964-3.544h5.074c-0.17,1.984-0.666,3.752-1.488,5.302
		s-1.899,2.863-3.231,3.94c-1.333,1.077-2.888,1.896-4.664,2.452c-1.776,0.558-3.704,0.837-5.783,0.837
		c-2.665,0-5.074-0.454-7.229-1.361c-2.154-0.907-3.987-2.206-5.499-3.897c-1.513-1.691-2.675-3.732-3.487-6.124
		c-0.813-2.391-1.219-5.061-1.219-8.009s0.411-5.617,1.232-8.009c0.822-2.391,1.989-4.427,3.502-6.109
		c1.512-1.682,3.345-2.981,5.499-3.898c2.155-0.916,4.555-1.375,7.201-1.375c1.984,0,3.855,0.289,5.613,0.865
		s3.317,1.389,4.678,2.438c1.361,1.049,2.471,2.314,3.331,3.799C417.898,156.018,418.412,157.666,418.582,159.481z"/>
	<path fill="#474747" d="M453.396,185.563h-27.953v-37.422h27.103v4.451h-22.141v11.368H451.1v4.451h-20.695v12.7h22.991V185.563z"
		/>
	<path fill="#474747" d="M474.488,186.215c-2.646,0-4.956-0.313-6.931-0.936c-1.976-0.624-3.62-1.498-4.934-2.623
		c-1.313-1.124-2.311-2.461-2.99-4.011c-0.681-1.55-1.049-3.261-1.106-5.132h4.764c0.132,1.418,0.51,2.646,1.134,3.686
		c0.623,1.04,1.422,1.899,2.396,2.58c0.973,0.681,2.093,1.182,3.359,1.502c1.266,0.322,2.617,0.482,4.054,0.482
		c1.398,0,2.67-0.146,3.813-0.439c1.143-0.293,2.121-0.718,2.934-1.275s1.441-1.229,1.886-2.013
		c0.443-0.784,0.666-1.668,0.666-2.651c0-1.021-0.203-1.89-0.609-2.608c-0.406-0.718-1.068-1.342-1.984-1.871
		c-0.917-0.528-2.117-1.006-3.601-1.432c-1.484-0.425-3.313-0.864-5.485-1.317c-2.099-0.473-3.908-1.017-5.43-1.631
		c-1.521-0.613-2.769-1.332-3.742-2.154s-1.696-1.762-2.168-2.821c-0.473-1.058-0.709-2.286-0.709-3.685
		c0-1.493,0.321-2.878,0.964-4.153c0.643-1.276,1.55-2.372,2.722-3.289c1.172-0.916,2.575-1.635,4.21-2.154s3.444-0.779,5.429-0.779
		c2.098,0,4.012,0.255,5.741,0.765c1.729,0.511,3.222,1.253,4.479,2.226c1.257,0.974,2.24,2.155,2.948,3.544
		c0.709,1.389,1.092,2.963,1.148,4.721h-4.791c-0.51-4.518-3.61-6.776-9.299-6.776c-2.778,0-4.918,0.516-6.421,1.545
		c-1.503,1.031-2.254,2.425-2.254,4.182c0,0.794,0.137,1.47,0.411,2.027c0.273,0.558,0.746,1.049,1.417,1.475
		c0.671,0.425,1.555,0.813,2.651,1.162c1.096,0.35,2.466,0.694,4.11,1.034c1.115,0.228,2.264,0.473,3.444,0.737
		c1.182,0.265,2.334,0.591,3.459,0.979c1.124,0.388,2.183,0.855,3.175,1.403s1.861,1.21,2.608,1.984
		c0.746,0.775,1.337,1.691,1.772,2.75c0.434,1.059,0.651,2.296,0.651,3.714c0,1.644-0.345,3.156-1.034,4.536
		c-0.69,1.38-1.654,2.565-2.892,3.558c-1.238,0.992-2.708,1.768-4.409,2.324C478.344,185.936,476.491,186.215,474.488,186.215z"/>
</g>
<linearGradient id="SVGID_1_" gradientUnits="userSpaceOnUse" x1="3266.5208" y1="-1745.3401" x2="3266.5208" y2="-2132.6067" gradientTransform="matrix(0.5798 0 0 -0.5798 -1784.9532 -1004.2085)">
	<stop  offset="0" style="stop-color:#0D6D72"/>
	<stop  offset="1" style="stop-color:#0D7882"/>
</linearGradient>
<path fill="url(#SVGID_1_)" d="M197.518,55.188l-76.707-44.306c-3.68-2.135-7.756-3.142-11.837-3.142
	c-4.075,0-8.146,1.072-11.827,3.142L20.431,55.188c-7.347,4.205-11.828,12.03-11.828,20.517v88.608
	c0,8.423,4.482,16.243,11.828,20.518l76.716,44.309c3.681,2.138,7.752,3.139,11.827,3.139c4.083,0,8.157-1.064,11.837-3.139
	l76.707-44.309c7.36-4.205,11.83-12.024,11.83-20.518V75.704C209.349,67.283,204.878,59.467,197.518,55.188z M202.742,164.311
	c0,6.091-3.284,11.7-8.501,14.775l-76.705,44.303c-2.614,1.472-5.551,2.271-8.489,2.271c-3.005,0-5.949-0.802-8.488-2.271
	l-76.721-44.303c-5.278-3.012-8.484-8.685-8.484-14.775V75.703c0-6.08,3.27-11.696,8.484-14.771l76.721-44.303
	c2.608-1.469,5.544-2.271,8.488-2.271c2.938,0,5.944,0.802,8.489,2.271l76.705,44.303c5.287,3.012,8.501,8.691,8.501,14.771V164.311
	z"/>
<polygon fill="#0D6D72" points="59.089,149.769 41.96,179.176 76.008,179.176 "/>
<polygon fill="#0D7882" points="58.888,149.971 92.945,149.971 75.983,179.104 "/>
<g>
	<g>
		<polygon fill="#02404F" points="92.945,150.31 58.888,150.31 41.431,120.829 76.477,120.829 		"/>
	</g>
</g>
<polygon fill="#034D59" points="109.973,120.761 127.208,150.31 92.945,150.31 76.477,120.829 "/>
<g>
	<g>
		<polygon fill="#034D59" points="144.377,120.687 127.208,150.31 109.973,120.761 		"/>
	</g>
</g>
<polygon fill="#0D7882" points="93.151,90.849 76.477,120.829 109.973,120.829 "/>
<g>
	<g>
		<polygon fill="#034D59" points="127.419,90.922 93.151,90.922 109.973,120.829 		"/>
	</g>
</g>
<polygon fill="#0D7882" points="178.447,61.643 143.898,61.643 160.989,91.198 "/>
<g>
	<g>
		<polygon fill="#034D59" points="109.977,61.574 127.076,91.266 160.989,91.266 143.898,61.643 		"/>
	</g>
</g>
<g>
	<g>
		<polygon fill="#02404F" points="92.807,91.266 127.419,91.266 110.15,61.574 		"/>
	</g>
</g>
<polygon fill="#02404F" points="127.408,90.805 109.939,120.823 144.377,120.823 "/>
</svg>
